# Blender v2.80 (sub 75) OBJ File: ''
# www.blender.org
mtllib walls.mtl
o Walls
v 40.000023 15000.000000 -150.000000
v 40.000023 15000.000000 0.000000
v 40.000023 0.000000 -150.000000
v 40.000023 0.000000 0.000000
v 0.000000 15000.000000 -150.000000
v 0.000000 0.000000 -150.000000
v 0.000000 15000.000000 -0.000000
v 0.000000 0.000000 -0.000000
v 1580.000000 15000.000000 -0.000000
v 1540.000000 15000.000000 0.000000
v 1580.000000 0.000000 -0.000000
v 1540.000000 0.000000 0.000000
v 1580.000000 15000.000000 -150.000000
v 1580.000000 0.000000 -150.000000
v 1540.000000 15000.000000 -150.000000
v 1540.000000 0.000000 -150.000000
vn 1.0000 0.0000 0.0000
vn 0.0000 0.0000 -1.0000
vn -1.0000 0.0000 0.0000
vn -0.0000 0.0000 1.0000
vn 0.0000 1.0000 0.0000
vn 0.0000 -1.0000 0.0000
usemtl None
s off
f 1//1 2//1 3//1
f 3//1 2//1 4//1
f 5//2 1//2 6//2
f 6//2 1//2 3//2
f 7//3 5//3 8//3
f 8//3 5//3 6//3
f 2//4 7//4 4//4
f 4//4 7//4 8//4
f 5//5 7//5 1//5
f 1//5 7//5 2//5
f 8//6 6//6 4//6
f 4//6 6//6 3//6
f 9//4 10//4 11//4
f 11//4 10//4 12//4
f 13//1 9//1 14//1
f 14//1 9//1 11//1
f 15//2 13//2 16//2
f 16//2 13//2 14//2
f 10//3 15//3 12//3
f 12//3 15//3 16//3
f 13//5 15//5 9//5
f 9//5 15//5 10//5
f 16//6 14//6 12//6
f 12//6 14//6 11//6
